<svg width="13" height="13" viewBox="0 0 13 13" fill="none" xmlns="http://www.w3.org/2000/svg">
<path fill-rule="evenodd" clip-rule="evenodd" d="M3.80838 1.01096C3.57675 0.667563 3.11061 0.576953 2.76721 0.808578C2.42381 1.0402 2.3332 1.50635 2.56482 1.84975L5.50059 6.2022L1.14814 9.13796C0.80474 9.36959 0.71413 9.83573 0.945755 10.1791C1.17738 10.5225 1.64353 10.6131 1.98693 10.3815L6.33938 7.44575L9.27514 11.7982C9.50676 12.1416 9.97291 12.2322 10.3163 12.0006C10.6597 11.769 10.7503 11.3028 10.5187 10.9594L7.58293 6.60696L11.9354 3.6712C12.2788 3.43958 12.3694 2.97343 12.1378 2.63003C11.9061 2.28663 11.44 2.19602 11.0966 2.42765L6.74414 5.36341L3.80838 1.01096Z" fill="black" fill-opacity="0.87"/>
</svg>
