<svg width="18" height="19" viewBox="0 0 18 19" fill="none" xmlns="http://www.w3.org/2000/svg">
<path d="M9.07384 9.31221C11.474 9.31221 13.4095 7.22178 13.4095 4.6281C13.4095 2.09249 11.4643 0.0407711 9.07384 0.0407711C6.69308 0.0407711 4.73814 2.10217 4.74781 4.63778C4.75749 7.22178 6.67372 9.31221 9.07384 9.31221ZM9.07384 7.2605C7.8641 7.2605 6.8576 6.16689 6.84792 4.6281C6.83824 3.15706 7.87378 2.08281 9.07384 2.08281C10.2933 2.08281 11.2998 3.14738 11.2998 4.6281C11.2998 6.15721 10.2933 7.2605 9.07384 7.2605ZM3.12192 18.3804H15.0258C16.7968 18.3804 17.6775 17.7804 17.6775 16.5223C17.6775 13.677 14.1644 10.3187 9.07384 10.3187C3.97358 10.3187 0.470176 13.677 0.470176 16.5223C0.470176 17.7804 1.35087 18.3804 3.12192 18.3804ZM3.0445 16.3384C2.86062 16.3384 2.80255 16.261 2.80255 16.1158C2.80255 14.8189 5.08654 12.3608 9.07384 12.3608C13.0611 12.3608 15.3451 14.8189 15.3451 16.1158C15.3451 16.261 15.2871 16.3384 15.0935 16.3384H3.0445Z" fill="black"/>
</svg>
