<svg width="21" height="20" viewBox="0 0 21 20" fill="none" xmlns="http://www.w3.org/2000/svg">
<path d="M0.968177 8.38631C0.968177 12.8865 4.61675 16.5351 9.11698 16.5351C10.6171 16.5351 12.001 16.119 13.1817 15.4028L17.0722 19.2933C17.4497 19.6708 17.9529 19.8546 18.4755 19.8546C19.5982 19.8546 20.4305 19.003 20.4305 17.8997C20.4305 17.3771 20.2466 16.8932 19.8691 16.5061L16.0173 12.6446C16.8109 11.4252 17.2755 9.96381 17.2755 8.38631C17.2755 3.8764 13.6269 0.227826 9.11698 0.227826C4.61675 0.227826 0.968177 3.8764 0.968177 8.38631ZM3.72638 8.38631C3.72638 5.40551 6.14586 2.99571 9.11698 2.99571C12.0978 2.99571 14.5173 5.40551 14.5173 8.38631C14.5173 11.3671 12.0978 13.7769 9.11698 13.7769C6.14586 13.7769 3.72638 11.3671 3.72638 8.38631Z" fill="black"/>
</svg>
